# xmcd
#
# Track frame offsets:
#	150
#	18356
#	37594
#	51021
#	62093
#	80391
#	95578
#	109238
#	129013
#	139393
#
# Disc length: 2037 seconds
#
# Revision: 0
# Processed by: cddbd v1.5.2PL0 Copyright (c) Steve Scherf et al.
# Submitted via: dBpowerAMP V4.0
#
DISCID=7807f30a
DTITLE=Country Worship - Psalm 5
DYEAR=2003
DGENRE=Country
TTITLE0=God loves country music
TTITLE1=Since I met Jesus
TTITLE2=Servant of all
TTITLE3=I thank you Jesus
TTITLE4=I will wait
TTITLE5=Psalm 5
TTITLE6=From the rising of the sun
TTITLE7=There`s s light
TTITLE8=O Lord  I thank You
TTITLE9=The last train to Heaven
EXTD=
EXTT0=
EXTT1=
EXTT2=
EXTT3=
EXTT4=
EXTT5=
EXTT6=
EXTT7=
EXTT8=
EXTT9=
PLAYORDER=
